<svg width="1200" height="630" viewBox="0 0 1200 630" fill="none" xmlns="http://www.w3.org/2000/svg">
  <!-- Background -->
  <rect width="1200" height="630" fill="#171614"/>

  <!-- Decorative elements -->
  <circle cx="1150" cy="50" r="300" fill="#F25C05" opacity="0.05"/>
  <circle cx="50" cy="600" r="200" fill="#F25C05" opacity="0.03"/>

  <!-- Left content -->
  <g transform="translate(80, 120)">
    <!-- Badge -->
    <rect x="0" y="0" width="140" height="32" rx="16" fill="#F25C05" opacity="0.2"/>
    <text x="70" y="21" font-family="Inter, system-ui, sans-serif" font-size="13" font-weight="600" fill="#F25C05" text-anchor="middle">WHITE LABEL</text>

    <!-- Headline -->
    <text x="0" y="80" font-family="Inter, system-ui, sans-serif" font-size="44" font-weight="700" fill="#FFFFFF">Your Brand.</text>
    <text x="0" y="135" font-family="Inter, system-ui, sans-serif" font-size="44" font-weight="700" fill="#FFFFFF">Your Clients.</text>
    <text x="0" y="190" font-family="Inter, system-ui, sans-serif" font-size="44" font-weight="700" fill="#F25C05">Your Way.</text>

    <!-- Description -->
    <text x="0" y="260" font-family="Inter, system-ui, sans-serif" font-size="18" fill="#A0A0A0">Fully customizable branding so your</text>
    <text x="0" y="285" font-family="Inter, system-ui, sans-serif" font-size="18" fill="#A0A0A0">assessments look like you built them.</text>

    <!-- Feature list -->
    <g transform="translate(0, 330)">
      <g transform="translate(0, 0)">
        <circle cx="8" cy="8" r="8" fill="#F25C05"/>
        <text x="28" y="13" font-family="Inter, system-ui, sans-serif" font-size="15" fill="#FFFFFF">Custom logo and colors</text>
      </g>
      <g transform="translate(0, 40)">
        <circle cx="8" cy="8" r="8" fill="#F25C05"/>
        <text x="28" y="13" font-family="Inter, system-ui, sans-serif" font-size="15" fill="#FFFFFF">Your own domain</text>
      </g>
      <g transform="translate(0, 80)">
        <circle cx="8" cy="8" r="8" fill="#F25C05"/>
        <text x="28" y="13" font-family="Inter, system-ui, sans-serif" font-size="15" fill="#FFFFFF">Branded PDF reports</text>
      </g>
      <g transform="translate(0, 120)">
        <circle cx="8" cy="8" r="8" fill="#F25C05"/>
        <text x="28" y="13" font-family="Inter, system-ui, sans-serif" font-size="15" fill="#FFFFFF">Client email customization</text>
      </g>
    </g>
  </g>

  <!-- Right side - Brand preview mockups -->
  <g transform="translate(550, 70)">
    <!-- Main preview card -->
    <rect x="0" y="0" width="560" height="480" rx="16" fill="#FFFFFF" filter="drop-shadow(0 10px 40px rgba(0,0,0,0.3))"/>

    <!-- Preview header showing customization -->
    <rect x="0" y="0" width="560" height="70" rx="16" fill="#FAF8F3"/>
    <rect x="0" y="50" width="560" height="20" fill="#FAF8F3"/>
    <text x="30" y="28" font-family="Inter, system-ui, sans-serif" font-size="12" fill="#71706B">BRANDING PREVIEW</text>
    <text x="30" y="50" font-family="Inter, system-ui, sans-serif" font-size="18" font-weight="600" fill="#171614">Customize Your Experience</text>

    <!-- Color picker section -->
    <g transform="translate(30, 90)">
      <text x="0" y="0" font-family="Inter, system-ui, sans-serif" font-size="13" font-weight="600" fill="#71706B">BRAND COLORS</text>

      <g transform="translate(0, 20)">
        <!-- Color swatches -->
        <rect x="0" y="0" width="50" height="50" rx="8" fill="#F25C05" stroke="#E6E2D6" stroke-width="2"/>
        <rect x="60" y="0" width="50" height="50" rx="8" fill="#1D9BA3"/>
        <rect x="120" y="0" width="50" height="50" rx="8" fill="#6366F1"/>
        <rect x="180" y="0" width="50" height="50" rx="8" fill="#EC4899"/>
        <rect x="240" y="0" width="50" height="50" rx="8" fill="#10B981"/>

        <!-- Custom color -->
        <rect x="300" y="0" width="50" height="50" rx="8" fill="#FFFFFF" stroke="#E6E2D6" stroke-width="2" stroke-dasharray="4,4"/>
        <text x="325" y="30" font-family="Inter, system-ui, sans-serif" font-size="20" fill="#71706B" text-anchor="middle">+</text>
      </g>
    </g>

    <!-- Logo upload area -->
    <g transform="translate(30, 180)">
      <text x="0" y="0" font-family="Inter, system-ui, sans-serif" font-size="13" font-weight="600" fill="#71706B">YOUR LOGO</text>

      <rect x="0" y="15" width="200" height="80" rx="8" fill="#FAF8F3" stroke="#E6E2D6" stroke-width="1" stroke-dasharray="4,4"/>
      <text x="100" y="50" font-family="Inter, system-ui, sans-serif" font-size="24" font-weight="700" fill="#171614" text-anchor="middle">ACME</text>
      <text x="100" y="70" font-family="Inter, system-ui, sans-serif" font-size="12" fill="#71706B" text-anchor="middle">COACHING</text>
    </g>

    <!-- Preview result -->
    <g transform="translate(30, 290)">
      <text x="0" y="0" font-family="Inter, system-ui, sans-serif" font-size="13" font-weight="600" fill="#71706B">LIVE PREVIEW</text>

      <!-- Mini assessment card preview -->
      <rect x="0" y="15" width="500" height="155" rx="12" fill="#FAF8F3" stroke="#E6E2D6" stroke-width="1"/>

      <!-- Preview header -->
      <rect x="0" y="15" width="500" height="50" rx="12" fill="#F25C05"/>
      <rect x="0" y="50" width="500" height="15" fill="#F25C05"/>
      <text x="20" y="35" font-family="Inter, system-ui, sans-serif" font-size="10" fill="#FFFFFF" opacity="0.8">ACME COACHING</text>
      <text x="20" y="52" font-family="Inter, system-ui, sans-serif" font-size="14" font-weight="600" fill="#FFFFFF">Leadership Assessment</text>

      <!-- Preview content -->
      <text x="20" y="95" font-family="Inter, system-ui, sans-serif" font-size="12" fill="#171614">Welcome! You've been invited to complete</text>
      <text x="20" y="112" font-family="Inter, system-ui, sans-serif" font-size="12" fill="#171614">your personalized leadership assessment.</text>

      <rect x="20" y="130" width="140" height="32" rx="6" fill="#F25C05"/>
      <text x="90" y="151" font-family="Inter, system-ui, sans-serif" font-size="12" font-weight="600" fill="#FFFFFF" text-anchor="middle">Begin Assessment</text>
    </g>
  </g>

  <!-- Bottom accent line -->
  <rect x="0" y="620" width="1200" height="10" fill="#F25C05"/>
</svg>