<svg width="1200" height="630" viewBox="0 0 1200 630" fill="none" xmlns="http://www.w3.org/2000/svg">
  <!-- Background -->
  <rect width="1200" height="630" fill="#FFFEFB"/>

  <!-- Decorative circles -->
  <circle cx="1100" cy="100" r="200" fill="#FEF5EE" opacity="0.6"/>
  <circle cx="100" cy="550" r="150" fill="#FEF5EE" opacity="0.4"/>

  <!-- Left content -->
  <g transform="translate(80, 100)">
    <!-- Badge -->
    <rect x="0" y="0" width="180" height="32" rx="16" fill="#FEF5EE"/>
    <text x="90" y="21" font-family="Inter, system-ui, sans-serif" font-size="13" font-weight="600" fill="#F25C05" text-anchor="middle">PERSONALIZED RESULTS</text>

    <!-- Headline -->
    <text x="0" y="80" font-family="Inter, system-ui, sans-serif" font-size="44" font-weight="700" fill="#171614">Results That</text>
    <text x="0" y="135" font-family="Inter, system-ui, sans-serif" font-size="44" font-weight="700" fill="#F25C05">Actually Help</text>

    <!-- Description -->
    <text x="0" y="195" font-family="Inter, system-ui, sans-serif" font-size="18" fill="#71706B">Beautiful, actionable reports your clients</text>
    <text x="0" y="220" font-family="Inter, system-ui, sans-serif" font-size="18" fill="#71706B">will actually read and use.</text>

    <!-- Feature list -->
    <g transform="translate(0, 270)">
      <g transform="translate(0, 0)">
        <circle cx="12" cy="12" r="12" fill="#FEF5EE"/>
        <path d="M7 12 L10 15 L17 8" stroke="#F25C05" stroke-width="2" fill="none" stroke-linecap="round" stroke-linejoin="round"/>
        <text x="35" y="17" font-family="Inter, system-ui, sans-serif" font-size="16" fill="#171614">Archetype identification</text>
      </g>
      <g transform="translate(0, 45)">
        <circle cx="12" cy="12" r="12" fill="#FEF5EE"/>
        <path d="M7 12 L10 15 L17 8" stroke="#F25C05" stroke-width="2" fill="none" stroke-linecap="round" stroke-linejoin="round"/>
        <text x="35" y="17" font-family="Inter, system-ui, sans-serif" font-size="16" fill="#171614">Strength and growth areas</text>
      </g>
      <g transform="translate(0, 90)">
        <circle cx="12" cy="12" r="12" fill="#FEF5EE"/>
        <path d="M7 12 L10 15 L17 8" stroke="#F25C05" stroke-width="2" fill="none" stroke-linecap="round" stroke-linejoin="round"/>
        <text x="35" y="17" font-family="Inter, system-ui, sans-serif" font-size="16" fill="#171614">Personalized action steps</text>
      </g>
      <g transform="translate(0, 135)">
        <circle cx="12" cy="12" r="12" fill="#FEF5EE"/>
        <path d="M7 12 L10 15 L17 8" stroke="#F25C05" stroke-width="2" fill="none" stroke-linecap="round" stroke-linejoin="round"/>
        <text x="35" y="17" font-family="Inter, system-ui, sans-serif" font-size="16" fill="#171614">PDF download ready</text>
      </g>
    </g>
  </g>

  <!-- Right side - Results mockup -->
  <g transform="translate(550, 60)">
    <!-- Main results card -->
    <rect x="0" y="0" width="560" height="510" rx="16" fill="#FFFFFF" stroke="#E6E2D6" stroke-width="2" filter="drop-shadow(0 4px 20px rgba(0,0,0,0.08))"/>

    <!-- Header -->
    <rect x="0" y="0" width="560" height="80" rx="16" fill="#171614"/>
    <rect x="0" y="60" width="560" height="20" fill="#171614"/>
    <text x="30" y="35" font-family="Inter, system-ui, sans-serif" font-size="14" fill="#71706B">Your Leadership Archetype</text>
    <text x="30" y="60" font-family="Inter, system-ui, sans-serif" font-size="24" font-weight="700" fill="#FFFFFF">The Visionary Strategist</text>

    <!-- Archetype badge -->
    <g transform="translate(420, 25)">
      <rect x="0" y="0" width="110" height="40" rx="20" fill="#F25C05"/>
      <text x="55" y="26" font-family="Inter, system-ui, sans-serif" font-size="14" font-weight="600" fill="#FFFFFF" text-anchor="middle">VISIONARY</text>
    </g>

    <!-- Profile summary -->
    <g transform="translate(30, 100)">
      <text x="0" y="20" font-family="Inter, system-ui, sans-serif" font-size="14" font-weight="600" fill="#71706B">PROFILE SUMMARY</text>
      <text x="0" y="50" font-family="Inter, system-ui, sans-serif" font-size="15" fill="#171614">You lead with future-focused thinking and inspire</text>
      <text x="0" y="70" font-family="Inter, system-ui, sans-serif" font-size="15" fill="#171614">others through compelling vision and strategic clarity.</text>
    </g>

    <!-- Strength bars -->
    <g transform="translate(30, 190)">
      <text x="0" y="0" font-family="Inter, system-ui, sans-serif" font-size="14" font-weight="600" fill="#71706B">CORE STRENGTHS</text>

      <g transform="translate(0, 25)">
        <text x="0" y="12" font-family="Inter, system-ui, sans-serif" font-size="13" fill="#171614">Strategic Thinking</text>
        <text x="500" y="12" font-family="Inter, system-ui, sans-serif" font-size="13" font-weight="600" fill="#F25C05" text-anchor="end">92%</text>
        <rect x="0" y="20" width="500" height="8" rx="4" fill="#F2EFE7"/>
        <rect x="0" y="20" width="460" height="8" rx="4" fill="#F25C05"/>
      </g>

      <g transform="translate(0, 65)">
        <text x="0" y="12" font-family="Inter, system-ui, sans-serif" font-size="13" fill="#171614">Vision Communication</text>
        <text x="500" y="12" font-family="Inter, system-ui, sans-serif" font-size="13" font-weight="600" fill="#F25C05" text-anchor="end">88%</text>
        <rect x="0" y="20" width="500" height="8" rx="4" fill="#F2EFE7"/>
        <rect x="0" y="20" width="440" height="8" rx="4" fill="#F25C05"/>
      </g>

      <g transform="translate(0, 105)">
        <text x="0" y="12" font-family="Inter, system-ui, sans-serif" font-size="13" fill="#171614">Change Leadership</text>
        <text x="500" y="12" font-family="Inter, system-ui, sans-serif" font-size="13" font-weight="600" fill="#F25C05" text-anchor="end">85%</text>
        <rect x="0" y="20" width="500" height="8" rx="4" fill="#F2EFE7"/>
        <rect x="0" y="20" width="425" height="8" rx="4" fill="#F25C05"/>
      </g>

      <g transform="translate(0, 145)">
        <text x="0" y="12" font-family="Inter, system-ui, sans-serif" font-size="13" fill="#171614">Innovation Focus</text>
        <text x="500" y="12" font-family="Inter, system-ui, sans-serif" font-size="13" font-weight="600" fill="#F25C05" text-anchor="end">78%</text>
        <rect x="0" y="20" width="500" height="8" rx="4" fill="#F2EFE7"/>
        <rect x="0" y="20" width="390" height="8" rx="4" fill="#F25C05"/>
      </g>
    </g>

    <!-- Growth area -->
    <g transform="translate(30, 395)">
      <text x="0" y="0" font-family="Inter, system-ui, sans-serif" font-size="14" font-weight="600" fill="#71706B">GROWTH OPPORTUNITY</text>
      <rect x="0" y="15" width="500" height="70" rx="8" fill="#FEF5EE"/>
      <text x="15" y="40" font-family="Inter, system-ui, sans-serif" font-size="14" fill="#171614">Balance visionary thinking with tactical execution.</text>
      <text x="15" y="60" font-family="Inter, system-ui, sans-serif" font-size="14" fill="#171614">Practice delegating details while maintaining oversight.</text>
    </g>
  </g>

  <!-- Bottom accent line -->
  <rect x="0" y="620" width="1200" height="10" fill="#F25C05"/>
</svg>