<svg width="300" height="80" viewBox="0 0 300 80" fill="none" xmlns="http://www.w3.org/2000/svg">
  <defs>
    <linearGradient id="flowGradient" x1="0%" y1="0%" x2="100%" y2="100%">
      <stop offset="0%" stop-color="#F25C05"/>
      <stop offset="100%" stop-color="#1D9BA3"/>
    </linearGradient>
  </defs>

  <!-- Icon: Two shapes opening to reveal flowing energy -->
  <!-- Left opening shape -->
  <path d="M6 15 C6 10 10 5 18 5 L22 5 L22 35 C22 40 18 45 14 45 L14 75 C14 75 6 70 6 60 L6 15 Z" fill="#F25C05"/>
  <!-- Right opening shape -->
  <path d="M54 15 C54 10 50 5 42 5 L38 5 L38 35 C38 40 42 45 46 45 L46 75 C46 75 54 70 54 60 L54 15 Z" fill="#1D9BA3"/>
  <!-- Central flow element -->
  <path d="M26 20 C26 15 28 10 30 10 C32 10 34 15 34 20 L34 30 C34 35 36 40 40 40 L40 50 C36 50 34 55 34 60 L34 70 C34 75 32 80 30 80 C28 80 26 75 26 70 L26 60 C26 55 24 50 20 50 L20 40 C24 40 26 35 26 30 L26 20 Z" fill="url(#flowGradient)"/>

  <!-- Wordmark -->
  <text x="75" y="52" font-family="Inter, -apple-system, BlinkMacSystemFont, sans-serif" font-size="36" font-weight="600" fill="#171614">FlowForge</text>
</svg>
